<?xml version="1.0" standalone="no"?>
<!DOCTYPE svg PUBLIC "-//W3C//DTD SVG 20010904//EN"
 "http://www.w3.org/TR/2001/REC-SVG-20010904/DTD/svg10.dtd">
<svg version="1.0" xmlns="http://www.w3.org/2000/svg"
 width="256.000000pt" height="256.000000pt" viewBox="0 0 256.000000 256.000000"
 preserveAspectRatio="xMidYMid meet">
<metadata>
Created by potrace 1.14, written by Peter Selinger 2001-2017
</metadata>
<g transform="translate(0.000000,256.000000) scale(0.100000,-0.100000)"
fill="#000000" stroke="none">
<path d="M214 2535 c-37 -22 -74 -74 -74 -103 0 -6 -10 -13 -22 -17 -65 -18
-118 -81 -118 -139 0 -103 101 -165 196 -120 l34 16 90 -88 c50 -48 90 -91 90
-95 0 -4 -17 -36 -38 -70 -45 -76 -81 -150 -86 -179 -1 -3 -4 -9 -7 -15 -4 -5
-10 -26 -15 -45 -11 -50 -11 -50 -14 -52 -1 -2 -3 -11 -5 -21 -7 -37 -15 -47
-57 -68 -49 -24 -88 -64 -88 -89 0 -27 35 -65 79 -85 38 -17 41 -21 42 -59 0
-23 2 -52 5 -66 20 -117 41 -196 67 -260 17 -41 30 -77 28 -79 -1 -2 1 -7 6
-10 4 -3 19 -26 32 -51 27 -50 109 -163 123 -168 21 -9 0 -36 -121 -156 l-129
-129 -35 16 c-46 22 -95 21 -134 -3 -103 -63 -73 -210 52 -256 16 -6 30 -17
30 -25 0 -46 63 -106 120 -115 91 -13 163 55 151 143 -3 26 -13 54 -21 63 -13
14 0 30 125 155 l139 138 38 -24 c21 -14 67 -40 103 -58 78 -40 82 -45 99 -96
36 -108 141 -210 256 -250 78 -27 196 -24 270 6 118 48 205 136 245 248 19 50
26 58 65 75 25 10 73 36 106 58 l62 39 135 -135 135 -135 -17 -35 c-21 -45
-20 -94 4 -133 22 -38 51 -55 101 -60 62 -8 141 48 153 107 4 21 13 30 34 35
74 16 126 109 103 184 -22 75 -117 113 -184 73 l-35 -20 -133 135 c-113 114
-132 136 -119 146 32 24 119 152 158 231 32 65 65 155 77 206 26 114 30 143
34 233 1 10 11 21 24 26 40 15 87 61 87 86 0 32 -33 70 -84 95 -37 17 -45 27
-52 58 -11 55 -10 52 -33 121 -27 77 -84 194 -118 240 l-26 33 93 93 92 93 33
-19 c55 -33 135 -16 168 35 55 83 10 197 -87 222 -19 4 -29 15 -32 34 -7 32
-39 72 -74 90 -122 65 -243 -52 -183 -177 l16 -35 -85 -84 -84 -85 -56 45
c-30 25 -60 46 -65 46 -6 0 -16 6 -22 14 -10 12 -176 100 -191 101 -3 1 -34
10 -70 22 -124 40 -304 56 -449 40 -76 -9 -231 -49 -231 -59 0 -5 -4 -7 -9 -4
-18 11 -267 -128 -279 -156 -2 -5 -8 -8 -13 -8 -5 0 -18 -9 -29 -20 -11 -11
-23 -20 -28 -20 -4 0 -45 38 -92 85 l-84 84 17 36 c9 20 17 48 17 63 0 66 -68
132 -135 132 -16 0 -49 -11 -71 -25z"/>
</g>
</svg>
